PathFileType	4	(X/Y/Z)	/Users/niels/Desktop/University/Third Semester/Perception and Action/Exam/Gymnastics Motion Tracking/Code for Gym Tracking/Analyzed Data/Start Salto/stsalto_bad_id11_1_Sports2D/stsalto_bad_id11_1_Sports2D_px_person00.trc
DataRate	CameraRate	NumFrames	NumMarkers	Units	OrigDataRate	OrigDataStartFrame	OrigNumFrames
29.850746268656717	29.850746268656717	11	22	m	29.850746268656717	125	201
Frame#	Time	Hip			RHip			RKnee			RAnkle			RBigToe			RSmallToe			RHeel			LHip			LKnee			LAnkle			LBigToe			LSmallToe			LHeel			Neck			Head			Nose			RShoulder			RElbow			RWrist			LShoulder			LElbow			LWrist		
		X1	Y1	Z1	X2	Y2	Z2	X3	Y3	Z3	X4	Y4	Z4	X5	Y5	Z5	X6	Y6	Z6	X7	Y7	Z7	X8	Y8	Z8	X9	Y9	Z9	X10	Y10	Z10	X11	Y11	Z11	X12	Y12	Z12	X13	Y13	Z13	X14	Y14	Z14	X15	Y15	Z15	X16	Y16	Z16	X17	Y17	Z17	X18	Y18	Z18	X19	Y19	Z19	X20	Y20	Z20	X21	Y21	Z21	X22	Y22	Z22
125	4.1875	1.0987199294296808	-0.4907161359605291	0.0	1.102789094790199	-0.49020469642328773	0.0	0.9909411774230272	-0.4160484889528966	0.0	1.0840467598678314	-0.3368293770957891	0.0	1.0712203980457773	-0.2945169957120431	0.0	1.083138531376042	-0.2963266377415354	0.0	1.0962558693844966	-0.3289983129715174	0.0	1.079437625984835	-0.49374314661606594	0.0	0.9779324977487696	-0.4499909066147933	0.0	0.9582645758924058	-0.33922353428283064	0.0	0.9060530426964313	-0.30259387280591826	0.0	0.9070565725185896	-0.3067773020746012	0.0	0.9629824090851784	-0.3308742512444406	0.0	0.9651570459282618	-0.554377318410132	0.0	0.8917846240529329	-0.5343485434848212	0.0	0.934056961454797	-0.5113368976091998	0.0	0.9826764820778768	-0.5536200968942083	0.0	1.0090610224439194	-0.47754679009429063	0.0	0.9351179402932313	-0.46899397603385395	0.0	0.9701980065188212	-0.5466168415845817	0.0	0.9737943512611491	-0.4818043834254979	0.0	0.9224339753369298	-0.4707858655880432	0.0
126	4.221	1.1061116587711215	-0.5011456541484854	0.0	1.1094204017532538	-0.5012084985701892	0.0	1.0039229781865344	-0.41743484649557516	0.0	1.1018227303000594	-0.34228368076416005	0.0	1.0916389082695725	-0.29551289303278394	0.0	1.1023185529809403	-0.2982774694086921	0.0	1.1153129029806408	-0.33713182040085043	0.0	1.0896936098072227	-0.5031872351541631	0.0	0.9893108796783217	-0.4506652918004401	0.0	0.9741147658635538	-0.3401249714028404	0.0	0.9243349919348426	-0.30113257090628226	0.0	0.9243035381308562	-0.3057178273318122	0.0	0.9795817088260512	-0.33403136389864974	0.0	0.9681625590680161	-0.5544417453234497	0.0	0.8959229253651897	-0.5308116720515609	0.0	0.9405286413669641	-0.510167978218238	0.0	0.9847401347524297	-0.5544083597270928	0.0	1.024314551133528	-0.48185990123547373	0.0	0.9514519980906417	-0.4601766584948433	0.0	0.9753721917095266	-0.5459958391610258	0.0	0.9889289613251913	-0.4869832100195224	0.0	0.9360422564070651	-0.46515326114713346	0.0
127	4.2545	1.1127309732025972	-0.5110716855068569	0.0	1.1157054493809446	-0.5111619036539115	0.0	1.0167347483140026	-0.41904999949954924	0.0	1.119253994440353	-0.34813909813445637	0.0	1.1103551744499005	-0.2968156368897592	0.0	1.1197846009263213	-0.30059507860641926	0.0	1.133370605032428	-0.3457210368752902	0.0	1.097616998897652	-0.5122724697683976	0.0	0.9990987547360382	-0.45120244557857087	0.0	0.9896072747019564	-0.3414377430208931	0.0	0.9423519055564917	-0.29969914922784713	0.0	0.9413119182755915	-0.30491351077490697	0.0	0.9953773399986746	-0.33790618215756163	0.0	0.9708554641255089	-0.5542100587917945	0.0	0.8995816089293504	-0.5263024510588918	0.0	0.9462222625283156	-0.5086890615201894	0.0	0.9869374919324377	-0.5550204554757153	0.0	1.0386142226903106	-0.4860062310802792	0.0	0.9672593326490747	-0.45328445975807874	0.0	0.9797532152018151	-0.5456615995578405	0.0	1.0015455307264929	-0.49101425502812307	0.0	0.9488914306731273	-0.46131439441434463	0.0
128	4.288	1.118422639525263	-0.5197921909663288	0.0	1.1215633567610417	-0.5195899615948216	0.0	1.0291941848051764	-0.4206726910427429	0.0	1.136235738453283	-0.3546193337778093	0.0	1.1282887136337434	-0.29880918782025	0.0	1.136814074648996	-0.3037721497871267	0.0	1.1502597527364593	-0.3548351682946029	0.0	1.1031288832432224	-0.5202953465214637	0.0	1.0066736856182603	-0.45220551493290806	0.0	1.00486467520955	-0.3428883860387302	0.0	0.9601299552443728	-0.2981508690374688	0.0	0.9583356564285622	-0.3041136270355516	0.0	1.0105049986173527	-0.3419255331571589	0.0	0.9733423699384678	-0.5535591958827806	0.0	0.9031496562564081	-0.5210603270816497	0.0	0.951254489868507	-0.5068555014971449	0.0	0.9894867551881545	-0.5552102942729881	0.0	1.0515805186283371	-0.4900461262732124	0.0	0.9825509452378386	-0.44868340779723137	0.0	0.9833444996221619	-0.5456460447863374	0.0	1.011343590144692	-0.4941208879278428	0.0	0.9613056353663628	-0.4587687569575348	0.0
129	4.3215	1.1231507134181031	-0.526932588213489	0.0	1.1269274417876054	-0.5263305391022305	0.0	1.0412111248440583	-0.42216123937151584	0.0	1.1527974200562858	-0.36188836864392837	0.0	1.1462949035914702	-0.30192379753611587	0.0	1.1544206361181704	-0.3083074777655635	0.0	1.1662178761898796	-0.36437592143259145	0.0	1.106631702681164	-0.5267702003368118	0.0	1.012387319892164	-0.4539382633767759	0.0	1.0200357816153225	-0.3442462953532105	0.0	0.9777079934623805	-0.2964677267790872	0.0	0.9755904578243696	-0.30318050511504074	0.0	1.0253067164509697	-0.3455374281286609	0.0	0.9757527556562082	-0.5523615259414539	0.0	0.9070272348230053	-0.5154589139309541	0.0	0.9560737607009752	-0.5046475572683442	0.0	0.9925656458837655	-0.5548893596712052	0.0	1.0631346307716907	-0.4941791934971129	0.0	0.9977750636473566	-0.44636026883509705	0.0	0.9862930136703921	-0.5457714901127575	0.0	1.018897342431296	-0.4966624756139045	0.0	0.974056010292091	-0.4571626288009164	0.0
130	4.355	1.1270552753925305	-0.5325328298123309	0.0	1.1318483986884091	-0.531541732531835	0.0	1.0528743119079196	-0.42345034467614334	0.0	1.1691921822139175	-0.36991691657302234	0.0	1.1649312874886502	-0.30666557785591003	0.0	1.1731159051233893	-0.3145755526540714	0.0	1.1817746131291598	-0.3741629805510097	0.0	1.1087559399923719	-0.5315698959824725	0.0	1.0173495110819482	-0.4562256759479184	0.0	1.0352811207230845	-0.3454208797853343	0.0	0.9952535834186739	-0.29482192241615834	0.0	0.9932850145186792	-0.3021990909944862	0.0	1.0402051933704264	-0.34844052176232754	0.0	0.9782261862939274	-0.5505786157972902	0.0	0.9115131716043712	-0.5098591949683251	0.0	0.9612011584550522	-0.5020761226092345	0.0	0.9961881375641006	-0.5540579636646922	0.0	1.0734361950677092	-0.49857172896799196	0.0	1.0134950112371146	-0.4460206951019603	0.0	0.9887619619412428	-0.5458400769888238	0.0	1.0250555340076288	-0.49890825153588436	0.0	0.98805033406128	-0.45632954480682303	0.0
131	4.3885000000000005	1.1304386665783266	-0.5368985804646227	0.0	1.1365481273068183	-0.5355731241486262	0.0	1.0644655694665177	-0.42456350649351554	0.0	1.1856466965639858	-0.378581158699202	0.0	1.184325228777222	-0.31346434477766616	0.0	1.192823959210428	-0.3226805054434983	0.0	1.1973563729566497	-0.38417991723421374	0.0	1.110060275564989	-0.5348997995710401	0.0	1.0225427922443535	-0.45846224239542155	0.0	1.0507307373586623	-0.34645977127671324	0.0	1.0131200019690634	-0.2934798070685185	0.0	1.0116587290556196	-0.30138960803413917	0.0	1.0555516304554344	-0.35064561963733165	0.0	0.980863628493222	-0.5483090920613332	0.0	0.9167840271797888	-0.5043894473268052	0.0	0.9669720031830296	-0.4991006092388754	0.0	1.00011146736574	-0.5527492328284674	0.0	1.0827236304132635	-0.5032192679021196	0.0	1.030195481605037	-0.4470588420620984	0.0	0.9909206133451115	-0.5457923402912275	0.0	1.0304157343997118	-0.5007992613472185	0.0	1.0041446060028218	-0.4561243126060791	0.0
132	4.422000000000001	1.1336729780157646	-0.5403749504433447	0.0	1.141340867481779	-0.5388136153011007	0.0	1.076470509103731	-0.42562669091521443	0.0	1.2021522268763474	-0.3879163931456408	0.0	1.2043013215185132	-0.32264428537486695	0.0	1.213104270606844	-0.332630625513184	0.0	1.21304285533975	-0.3947227329319245	0.0	1.1110340474527483	-0.537125606317834	0.0	1.0284836525992527	-0.459888501739579	0.0	1.0664767067692846	-0.34751153461275225	0.0	1.031739533411053	-0.2926256376010414	0.0	1.0309026290799215	-0.30091128984288856	0.0	1.0715666004077902	-0.35240073172106895	0.0	0.9837812733441619	-0.5457001495557254	0.0	0.9229183200024996	-0.49892381748428605	0.0	0.9734624936583574	-0.4955983369599596	0.0	1.0040131534522558	-0.5509868509248943	0.0	1.091239357370309	-0.5079863888993027	0.0	1.0483183910238787	-0.4486131903040056	0.0	0.9930714514788788	-0.5456166059600452	0.0	1.0355091090585138	-0.5020816173534197	0.0	1.023105333330244	-0.45629440111548675	0.0
133	4.455500000000001	1.1370382692690995	-0.5432105695159516	0.0	1.1464410032819818	-0.5415766863518245	0.0	1.0895343219315925	-0.4268181096604692	0.0	1.2186994688366624	-0.3982005913294988	0.0	1.2247212118859274	-0.33441758270261185	0.0	1.233641541483154	-0.344589501700635	0.0	1.2288380893088937	-0.4062960123781366	0.0	1.112220588537639	-0.5385429048942231	0.0	1.035475200739956	-0.4600098141311368	0.0	1.0826967001746093	-0.3487159377496879	0.0	1.0514886136866495	-0.29225880239492863	0.0	1.0510963017160488	-0.3007383957515559	0.0	1.0884374256194773	-0.35402781765430363	0.0	0.9871663828196395	-0.5427864220667343	0.0	0.9299156219803163	-0.49327203697201416	0.0	0.9805991600662605	-0.4914440994595169	0.0	1.0077822525219808	-0.5487759923439461	0.0	1.099290131375429	-0.5127663889292509	0.0	1.0682247098696922	-0.44999228431896104	0.0	0.9956263404291994	-0.5451416522112644	0.0	1.0410408175150376	-0.5026320902835721	0.0	1.0452212004719885	-0.45651759052709345	0.0
134	4.489	1.140532754555953	-0.5454961463914294	0.0	1.1517612841334883	-0.5439723137038752	0.0	1.104110682758232	-0.4282824734364878	0.0	1.2353197453317055	-0.4096876382500937	0.0	1.245411045632516	-0.34858295588785787	0.0	1.2542589056797415	-0.3586521546025498	0.0	1.2447589185569057	-0.4192417942227065	0.0	1.1140652018965405	-0.5392213212695588	0.0	1.0435805213928613	-0.45881658877350673	0.0	1.099491777707121	-0.3501006274680721	0.0	1.0723507691451233	-0.2922215327011229	0.0	1.0719571522478406	-0.30067702760662013	0.0	1.10614913444614	-0.3557697046411285	0.0	0.9911617742026704	-0.5394763203522236	0.0	0.9375913201934517	-0.48745727547012413	0.0	0.9881648817837748	-0.4867008120191362	0.0	1.0115565077844526	-0.5462269067706312	0.0	1.1071594703256131	-0.5174851434600142	0.0	1.0895730550076514	-0.45124583282665776	0.0	0.9988700472527903	-0.543990115815239	0.0	1.0474532160468815	-0.502518157224827	0.0	1.0692184724673195	-0.45661435445602894	0.0
135	4.5225	1.1438337031274788	-0.5471512083732883	0.0	1.1569163946420276	-0.5458712471934973	0.0	1.1201322350078229	-0.4300562796237068	0.0	1.2517877566747622	-0.42231949329452373	0.0	1.2658795047520601	-0.36431140991422356	0.0	1.2745618148068205	-0.3744569913494378	0.0	1.2605467616153978	-0.43346050524431545	0.0	1.1166217285992188	-0.5390623086026515	0.0	1.0524502691339177	-0.45665997897688565	0.0	1.1165769517336104	-0.3516290775993039	0.0	1.0938417744712607	-0.29234178863962135	0.0	1.092816675398779	-0.30052356702363336	0.0	1.1242475073083753	-0.3577804811072906	0.0	0.9956912175603484	-0.5356839910810403	0.0	0.945497832705316	-0.4817823039265422	0.0	0.9957542313024712	-0.4817165002555913	0.0	1.015497600736987	-0.5436244523808842	0.0	1.1149066806625478	-0.5219850844301963	0.0	1.1110062190325012	-0.4532439102282981	0.0	1.002785136004417	-0.5417485483679662	0.0	1.054448937040533	-0.501911491012541	0.0	1.0918790392330537	-0.45678985957621293	0.0
